<?xml version="1.0" encoding="utf-8"?>
<svg width="800px" height="800px" viewBox="0 0 24 24" xmlns="http://www.w3.org/2000/svg">
<rect width="24" height="24" fill="black"/>
<path d="M12 6C9.79 6 8 7.79 8 10s1.79 4 4 4 4-1.79 4-4S14.21 6 12 6zM18.38 17.29c.35.57.23 1.33-.34 1.7-.52.33-1.12.53-1.73.66C15.23 19.9 13.83 20 12 20s-3.23-.1-4.31-.35c-.59-.13-1.19-.34-1.71-.66-.58-.37-.71-1.14-.33-1.71.42-.67 1-1.2 1.77-1.57C8.58 15.17 10.12 15 12 15s3.42.17 4.58.71c.77.37 1.35.9 1.8 1.58z" fill="#808080"/>
</svg>
